PathFileType	4	(X/Y/Z)	/Users/itak/Documents/Research/Walk-IL/dataset/trc/00075_00006.trc
DataRate	CameraRate	NumFrames	NumMarkers	Units	OrigDataRate	OrigDataStartFrame	OrigNumFrames
100.000000	100.000000	4	53	mm	100.000000	637	729
Frame#	Time	RPSI			LPSI			L3			STRN			T10			C7			CLAV			RBAK			LBAK			LSHO			LUPA			LAEL			LAOL			LWTS			LWPS			LFRA			LIFD			LHPS			LHTS			RSHO			RUPA			RAEL			RAOL			RWTS			RWPS			RFRA			RIFD			RHTS			RHPS			RBHD			LFHD			RFHD			LBHD			LHIP			RHIP			RASI			LASI			LKNE			LTHI			LANK			LTIP			LTOE			LMT1			LMT5			LHEE			RKNE			RTHI			RANK			RTIP			RTOE			RMT1			RMT5			RHEE			
		X1	Y1	Z1	X2	Y2	Z2	X3	Y3	Z3	X4	Y4	Z4	X5	Y5	Z5	X6	Y6	Z6	X7	Y7	Z7	X8	Y8	Z8	X9	Y9	Z9	X10	Y10	Z10	X11	Y11	Z11	X12	Y12	Z12	X13	Y13	Z13	X14	Y14	Z14	X15	Y15	Z15	X16	Y16	Z16	X17	Y17	Z17	X18	Y18	Z18	X19	Y19	Z19	X20	Y20	Z20	X21	Y21	Z21	X22	Y22	Z22	X23	Y23	Z23	X24	Y24	Z24	X25	Y25	Z25	X26	Y26	Z26	X27	Y27	Z27	X28	Y28	Z28	X29	Y29	Z29	X30	Y30	Z30	X31	Y31	Z31	X32	Y32	Z32	X33	Y33	Z33	X34	Y34	Z34	X35	Y35	Z35	X36	Y36	Z36	X37	Y37	Z37	X38	Y38	Z38	X39	Y39	Z39	X40	Y40	Z40	X41	Y41	Z41	X42	Y42	Z42	X43	Y43	Z43	X44	Y44	Z44	X45	Y45	Z45	X46	Y46	Z46	X47	Y47	Z47	X48	Y48	Z48	X49	Y49	Z49	X50	Y50	Z50	X51	Y51	Z51	X52	Y52	Z52	X53	Y53	Z53	

638	6.37	401.6426391601562	1027.965087890625	983.8228149414062	436.7761840820312	1019.1533203125	1153.603393554688	422.5835571289062	1086.69775390625	1076.519653320312	174.8540649414062	1294.7548828125	1101.362670898438	443.4363098144531	1218.27294921875	1080.307495117188	391.3368835449219	1487.562866210938	1074.868041992188	208.9717407226562	1408.119873046875	1092.936279296875	443.5502014160156	1343.527099609375	1004.010681152344	422.7075500488281	1453.502807617188	1174.977172851562	328.5868835449219	1468.195068359375	1254.444213867188	341.6773376464844	1348.576171875	1342.400390625	294.2816467285156	1144.027709960938	1391.138305664062	345.3173217773438	1108.9912109375	1303.459228515625	158.7046508789062	917.914306640625	1369.8896484375	221.9884948730469	903.8297119140625	1423.690063476562	257.740478515625	1041.678344726562	1415.222778320312	106.068733215332	738.845458984375	1386.050048828125	175.1481475830078	830.656982421875	1434.063720703125	122.3316879272461	843.1589965820312	1388.383178710938	314.3156433105469	1444.674682617188	908.8040771484375	323.5524291992188	1374.296142578125	849.4032592773438	356.389404296875	1113.288208007812	818.6600952148438	331.9202575683594	1090.237915039062	912.8553466796875	197.2068328857422	869.0283203125	849.1524047851562	269.9068908691406	852.0068969726562	803.3665771484375	340.4338684082031	1032.375610351562	808.949462890625	190.6444244384766	677.8788452148438	848.5620727539062	179.0560760498047	761.2962036132812	853.1390380859375	239.1122283935547	761.4706420898438	804.341796875	362.261962890625	1675.462158203125	1087.171508789062	150.8747863769531	1696.600952148438	1048.36181640625	204.4891662597656	1712.79150390625	1162.250610351562	296.6041259765625	1651.001831054688	969.0181884765625	345.9991149902344	962.2501831054688	1260.996826171875	317.5315551757812	963.6448364257812	915.8360595703125	200.0351867675781	991.6611328125	956.3446044921875	229.6571960449219	978.6848754882812	1222.012084960938	205.7324829101562	508.7194519042969	1206.187377929688	258.0221252441406	643.9500122070312	1244.945068359375	316.0101318359375	49.41067886352539	1213.5712890625	262.0502319335938	262.8601989746094	1222.997314453125	106.9092636108398	42.44231033325195	1213.06298828125	154.9406890869141	43.30629730224609	1159.1396484375	213.9160614013672	40.10107421875	1255.85888671875	363.9884948730469	47.89288711547852	1135.5712890625	144.4550323486328	534.570556640625	959.2218017578125	201.4375152587891	800.9425659179688	923.061279296875	289.0696411132812	63.42558288574219	917.9027099609375	172.9718933105469	411.4289245605469	941.7158203125	93.08188629150391	80.44597625732422	988.484375	154.7348175048828	69.19827270507812	1019.9150390625	167.2356719970703	71.87376403808594	923.2662353515625	343.9114685058594	63.39909362792969	965.9686279296875	
639	6.38	397.9604187011719	1028.253173828125	985.1828002929688	433.1051940917969	1019.167541503906	1154.991333007812	419.1148071289062	1086.989501953125	1077.9951171875	171.3878173828125	1294.909912109375	1102.248168945312	439.9639587402344	1218.384521484375	1081.980346679688	388.0078430175781	1487.689086914062	1076.140991210938	205.58056640625	1408.254760742188	1093.773559570312	440.3243408203125	1343.586303710938	1005.54296875	419.0631713867188	1453.726196289062	1176.501953125	324.5758666992188	1468.401489257812	1255.5517578125	336.62109375	1348.691040039062	1343.485107421875	287.65087890625	1144.25048828125	1391.585571289062	339.40576171875	1109.088256835938	1304.419189453125	150.9192962646484	918.9696655273438	1368.441772460938	213.4529418945312	904.4192504882812	1422.961181640625	250.3546752929688	1042.076416015625	1415.148071289062	96.94927978515625	740.2471923828125	1383.770141601562	166.0147094726562	831.3892822265625	1432.661499023438	113.8918151855469	844.38134765625	1386.423583984375	311.292236328125	1444.60546875	909.9055786132812	320.6948852539062	1374.144409179688	850.6297607421875	353.79345703125	1113.123413085938	820.3827514648438	328.9690246582031	1090.173095703125	914.5238647460938	194.9623107910156	868.6207275390625	850.4918823242188	267.8934326171875	851.7340698242188	804.9749145507812	338.0018005371094	1032.2138671875	810.704833984375	188.8156433105469	677.4552001953125	849.994873046875	177.0474395751953	760.87109375	854.4984130859375	237.2567291259766	761.110595703125	805.8995971679688	359.2118530273438	1675.315795898438	1086.220336914062	147.0419158935547	1696.871459960938	1052.0927734375	203.1355438232422	1712.896850585938	1164.787719726562	290.9128112792969	1651.052124023438	969.610107421875	342.3089904785156	962.2745361328125	1262.348510742188	313.7035522460938	964.110107421875	917.23828125	196.0942840576172	992.2855834960938	957.5875244140625	225.9943695068359	978.8103637695312	1223.247314453125	203.4903411865234	508.3132019042969	1206.706787109375	255.1742706298828	643.7413330078125	1245.71435546875	315.9587707519531	49.5148811340332	1213.534057617188	260.9777526855469	262.6468200683594	1223.180419921875	106.7893981933594	42.40867614746094	1213.042602539062	154.8653259277344	43.260009765625	1159.096313476562	213.8406066894531	40.13715744018555	1255.765625	363.9048461914062	48.15130615234375	1135.522827148438	142.4992828369141	534.6211547851562	960.8031005859375	197.7663421630859	801.2864990234375	924.083740234375	273.93310546875	59.67394638061523	919.8190307617188	167.9974060058594	411.0176086425781	943.4249877929688	79.72120666503906	81.60687255859375	993.1915893554688	141.3564147949219	69.04117584228516	1023.980163574219	152.4226684570312	70.81537628173828	927.0507202148438	329.4681396484375	58.78220367431641	967.0245971679688	
640	6.390000000000001	394.2084045410156	1028.48291015625	986.3486328125	429.4873046875	1019.122924804688	1156.154541015625	415.6537780761719	1087.221557617188	1079.260131835938	168.0108489990234	1295.04150390625	1103.107788085938	436.53955078125	1218.432495117188	1083.451293945312	384.7765197753906	1487.7578125	1077.282348632812	202.2817840576172	1408.364013671875	1094.570556640625	437.1458740234375	1343.588623046875	1006.893493652344	415.5755615234375	1453.875610351562	1177.873168945312	320.7439270019531	1468.546142578125	1256.552856445312	331.7747192382812	1348.74560546875	1344.431518554688	281.28564453125	1144.409301757812	1391.876098632812	333.7096252441406	1109.13427734375	1305.21044921875	143.3597106933594	920.0215454101562	1366.7958984375	205.1582336425781	904.9743041992188	1422.001953125	243.2653198242188	1042.412841796875	1414.884765625	88.03907775878906	741.658935546875	1381.210693359375	157.1091918945312	832.1157836914062	1431.015625	105.6734619140625	845.6090087890625	1384.240234375	308.2637634277344	1444.518920898438	910.9096069335938	317.7951049804688	1373.977783203125	851.742431640625	351.1256103515625	1112.934326171875	821.9845581054688	326.0104370117188	1090.091918945312	916.0828857421875	192.6519470214844	868.196533203125	851.8075561523438	265.8013916015625	851.448486328125	806.529052734375	335.4913024902344	1032.035522460938	812.3521118164062	186.9188232421875	677.0216064453125	851.427490234375	174.9672698974609	760.4282836914062	855.8519897460938	235.3271789550781	760.7299194335938	807.4261474609375	356.2065734863281	1675.161865234375	1085.205200195312	143.3748779296875	1697.0673828125	1055.800170898438	201.9080352783203	1712.961059570312	1167.207153320312	285.3048706054688	1651.055541992188	970.1904907226562	338.735107421875	962.252685546875	1263.55126953125	309.7611999511719	964.53271484375	918.5006103515625	192.1475372314453	992.8279418945312	958.8488159179688	222.4151763916016	978.925537109375	1224.46533203125	201.2289886474609	507.9050598144531	1207.204467773438	252.3987274169922	643.4970092773438	1246.44140625	315.9118347167969	49.61053085327148	1213.492065429688	259.9112548828125	262.4311218261719	1223.360107421875	106.6642074584961	42.37247848510742	1213.0205078125	154.7952270507812	43.21729278564453	1159.058715820312	213.7800598144531	40.16938018798828	1255.683715820312	363.8316955566406	48.42707061767578	1135.482055664062	140.6143951416016	534.6082763671875	962.2114868164062	193.9582061767578	801.590576171875	925.1209716796875	260.0535278320312	56.51321029663086	921.6524658203125	163.3887939453125	410.6461486816406	944.9967651367188	67.54142761230469	81.95901489257812	998.1347045898438	129.3374633789062	68.61765289306641	1028.0205078125	138.8627166748047	69.61712646484375	930.8182983398438	316.2794799804688	55.03511810302734	968.0106811523438	
641	6.4	390.3926696777344	1028.650146484375	987.321533203125	425.9211120605469	1019.017211914062	1157.095458984375	412.1971130371094	1087.381958007812	1080.316162109375	164.7279357910156	1295.148071289062	1103.946166992188	433.1721801757812	1218.411743164062	1084.713012695312	381.645263671875	1487.765869140625	1078.293334960938	199.0816040039062	1408.446899414062	1095.332763671875	434.0143432617188	1343.5302734375	1008.060241699219	412.2535400390625	1453.946655273438	1179.087646484375	317.1042175292969	1468.626831054688	1257.449462890625	327.1595153808594	1348.734008789062	1345.243774414062	275.2038879394531	1144.49951171875	1392.020141601562	328.2555847167969	1109.121459960938	1305.838256835938	136.0404815673828	921.0736694335938	1364.973388671875	197.1189880371094	905.4940795898438	1420.8203125	236.4560394287109	1042.68310546875	1414.439331054688	79.34996032714844	743.0776977539062	1378.389282226562	148.4515380859375	832.8432006835938	1429.131958007812	97.6910400390625	846.8472900390625	1381.841674804688	305.2298278808594	1444.416870117188	911.8181762695312	314.8456115722656	1373.802124023438	852.7385864257812	348.3849792480469	1112.7275390625	823.4620361328125	323.0523681640625	1089.997436523438	917.5340576171875	190.2772979736328	867.758544921875	853.1026000976562	263.6247863769531	851.1495361328125	808.0274658203125	332.9011535644531	1031.842163085938	813.8886108398438	184.9484558105469	676.5813598632812	852.8555297851562	172.8134460449219	759.9702758789062	857.197509765625	233.3124237060547	760.3358154296875	808.9187622070312	353.2488098144531	1675.0029296875	1084.154541015625	139.8794250488281	1697.186645507812	1059.464477539062	200.7920837402344	1712.982299804688	1169.508666992188	279.7947082519531	1651.016845703125	970.7597045898438	335.2767028808594	962.184326171875	1264.60791015625	305.7148742675781	964.904296875	919.617919921875	188.2034759521484	993.2748413085938	960.1244506835938	218.9057006835938	979.0322875976562	1225.66552734375	198.9462738037109	507.4974670410156	1207.673706054688	249.6977081298828	643.214599609375	1247.124633789062	315.8675537109375	49.70046234130859	1213.443481445312	258.855712890625	262.2117614746094	1223.52880859375	106.5481796264648	42.33673858642578	1213.004028320312	154.7352447509766	43.17658233642578	1159.028198242188	213.7331237792969	40.1985969543457	1255.61181640625	363.7699890136719	48.71765899658203	1135.44287109375	138.7675628662109	534.5367431640625	963.437744140625	190.0519866943359	801.846923828125	926.1803588867188	247.5913391113281	53.90908813476562	923.4430541992188	159.1677856445312	410.3040466308594	946.4171752929688	56.51292419433594	81.32517242431641	1003.205383300781	118.6798477172852	67.79125213623047	1031.942504882812	126.675163269043	68.20125579833984	934.4931640625	304.4743957519531	52.12561416625977	969.0177612304688	
